<?xml version="1.0" encoding="utf-8"?>
<!-- Generator: Adobe Illustrator 19.0.0, SVG Export Plug-In . SVG Version: 6.00 Build 0)  -->
<svg version="1.1" id="Capa_1" xmlns="http://www.w3.org/2000/svg" xmlns:xlink="http://www.w3.org/1999/xlink" x="0px" y="0px"
	 viewBox="-468.4 383.2 20 18.6" style="enable-background:new -468.4 383.2 20 18.6;" xml:space="preserve">
<style type="text/css">
	.st0{fill:#EE3B00;}
</style>
<g>
	<path class="st0" d="M-463.8,383.2c-1,0.6-1.9,1.4-2.6,2.4c-0.7,1-1.2,2.2-1.5,3.5c-0.3,1.3-0.5,2.8-0.5,4.5v8.2c0,0,0.4,0,0.9,0
		h7.3c0.5,0,0.9,0,0.9,0v-8.2c0-0.5,0-0.9,0-0.9h-3.6c0.1-3.4,1-4.8,2.6-5.3"/>
	<path class="st0" d="M-452.8,383.2c-1,0.6-1.9,1.4-2.6,2.4c-0.7,1-1.2,2.2-1.5,3.5c-0.3,1.3-0.5,2.8-0.5,4.5v8.2c0,0,0.4,0,0.9,0
		h7.3c0.5,0,0.9,0,0.9,0v-8.2c0-0.5,0-0.9,0-0.9h-3.6c0.1-3.4,1-4.8,2.6-5.3"/>
</g>
</svg>
