<?xml version="1.0" encoding="utf-8"?>
<!-- Generator: Adobe Illustrator 19.0.0, SVG Export Plug-In . SVG Version: 6.00 Build 0)  -->
<svg version="1.1" id="Layer_1" xmlns="http://www.w3.org/2000/svg" xmlns:xlink="http://www.w3.org/1999/xlink" x="0px" y="0px"
	 viewBox="-484.5 168.5 84 21" style="enable-background:new -484.5 168.5 84 21;" xml:space="preserve">
<style type="text/css">
	.st0{fill:#AFA5A3;}
</style>
<path class="st0" d="M-464,187.8c0,0.7-0.6,1.3-1.3,1.3h-17.5c-0.7,0-1.3-0.6-1.3-1.3v-17.5c0-0.7,0.6-1.3,1.3-1.3h17.5
	c0.7,0,1.3,0.6,1.3,1.3V187.8z M-470.3,189v-7.5h2.5l0.6-3.1h-3.1v-1.3c0-1.3,0.6-1.9,1.9-1.9h1.3v-3.1c-0.6,0-1.4,0-2.5,0
	c-2.3,0-3.8,1.8-3.8,4.4v1.9h-2.5v3.1h2.5v7.5H-470.3z"/>
<g>
	<path class="st0" d="M-452.2,178L-452.2,178C-452.3,178-452.3,178-452.2,178L-452.2,178z"/>
	<path class="st0" d="M-444.5,168.9h-17c-0.8,0-1.5,0.6-1.5,1.4v17.2c0,0.8,0.7,1.4,1.5,1.4h17c0.8,0,1.5-0.6,1.5-1.4v-17.2
		C-443,169.6-443.7,168.9-444.5,168.9z M-456.9,185.8h-3v-9.1h3V185.8z M-458.4,175.5L-458.4,175.5c-1,0-1.7-0.7-1.7-1.6
		c0-0.9,0.7-1.6,1.7-1.6c1,0,1.7,0.7,1.7,1.6C-456.7,174.8-457.4,175.5-458.4,175.5z M-446,185.8h-3v-4.9c0-1.2-0.4-2.1-1.5-2.1
		c-0.8,0-1.3,0.6-1.6,1.1c-0.1,0.2-0.1,0.5-0.1,0.7v5.1h-3c0,0,0-8.2,0-9.1h3v1.3c0.4-0.6,1.1-1.5,2.7-1.5c2,0,3.5,1.3,3.5,4.1
		L-446,185.8L-446,185.8z"/>
</g>
<path class="st0" d="M-422.8,173.3c-0.7,0.3-1.4,0.5-2.2,0.6c0.8-0.5,1.4-1.2,1.7-2.1c-0.7,0.4-1.5,0.7-2.4,0.9
	c-0.7-0.7-1.7-1.2-2.8-1.2c-2.1,0-3.8,1.7-3.8,3.8c0,0.3,0,0.6,0.1,0.9c-3.1-0.2-5.9-1.7-7.8-4c-0.3,0.6-0.5,1.2-0.5,1.9
	c0,1.3,0.7,2.5,1.7,3.2c-0.6,0-1.2-0.2-1.7-0.5c0,0,0,0,0,0c0,1.8,1.3,3.4,3,3.7c-0.3,0.1-0.7,0.1-1,0.1c-0.2,0-0.5,0-0.7-0.1
	c0.5,1.5,1.9,2.6,3.5,2.6c-1.3,1-2.9,1.6-4.7,1.6c-0.3,0-0.6,0-0.9-0.1c1.7,1.1,3.7,1.7,5.8,1.7c7,0,10.8-5.8,10.8-10.8
	c0-0.2,0-0.3,0-0.5C-423.9,174.7-423.3,174-422.8,173.3z"/>
<g id="Icons_with_numbers">
	<g id="Group" transform="translate(-336.000000, 0.000000)">
		<path id="Shape" class="st0" d="M-72.5,179.7l7.1,6.1c-0.3,0.2-0.6,0.4-1,0.4h-17.1c-0.4,0-0.7-0.1-1-0.4l7.1-6.1l2.5,2.2
			L-72.5,179.7z M-75,180.4l-9.5-8.2c0.3-0.2,0.6-0.4,1-0.4h17.1c0.4,0,0.7,0.1,1,0.4L-75,180.4z M-65,185l-6.9-5.9l6.9-6V185
			L-65,185z M-85,185v-11.9l6.9,6L-85,185L-85,185z"/>
	</g>
</g>
</svg>
